<?xml version="1.0" encoding="UTF-8"?>
<svg style="enable-background:new 0 0 240 234" version="1.1" viewBox="0 0 240 234" xml:space="preserve" xmlns="http://www.w3.org/2000/svg">
<title>Adobe Illustrator CC logo</title>
<style type="text/css">
	.st0{fill:#330000;}
	.st1{fill:#FF9A00;}
</style>
<g id="vlpa">
	<g id="vlpb">
		<g id="vlpc">
			<g id="vlpd">
				<path class="st0" d="M42.5,0h155C221,0,240,19,240,42.5v149c0,23.5-19,42.5-42.5,42.5h-155C19,234,0,215,0,191.5v-149      C0,19,19,0,42.5,0z"/>
			</g>
		</g>
	</g>
	<g id="vlpe">
		<g id="vlpf">
			<path class="st1" d="m116 140h-37.2l-7.6 23.5c-0.2 0.9-1 1.5-1.9 1.4h-18.8c-1.1 0-1.4-0.6-1.1-1.8l32.2-92.7c0.3-1 0.6-2.1 1-3.3 0.4-2.1 0.6-4.3 0.6-6.5-0.1-0.5 0.3-1 0.8-1.1h0.3 25.6c0.8 0 1.2 0.3 1.3 0.8l36.5 103c0.3 1.1 0 1.6-1 1.6h-20.9c-0.7 0.1-1.4-0.4-1.6-1.1l-8.2-23.8zm-31.4-20.3h25.4c-0.6-2.1-1.4-4.6-2.3-7.2-0.9-2.7-1.8-5.6-2.7-8.6-1-3.1-1.9-6.1-2.9-9.2s-1.9-6-2.7-8.9c-0.8-2.8-1.5-5.4-2.2-7.8h-0.2c-0.9 4.3-2 8.6-3.4 12.9-1.5 4.8-3 9.8-4.6 14.8-1.4 5.1-2.9 9.8-4.4 14z"/>
			<path class="st1" d="m170 77c-3.3 0.1-6.5-1.2-8.9-3.5-2.3-2.5-3.5-5.8-3.4-9.2-0.1-3.4 1.2-6.6 3.6-8.9s5.6-3.5 8.9-3.5c3.9 0 6.9 1.2 9.1 3.5 2.2 2.4 3.4 5.6 3.3 8.9 0.1 3.4-1.1 6.7-3.5 9.2-2.3 2.4-5.7 3.7-9.1 3.5zm-11.2 86.8v-77c0-1 0.4-1.4 1.3-1.4h19.8c0.9 0 1.3 0.5 1.3 1.4v77c0 1.1-0.4 1.6-1.3 1.6h-19.6c-1 0-1.5-0.6-1.5-1.6z"/>
		</g>
	</g>
</g>
</svg>
